<svg height="512pt" viewBox="-55 0 512 512.00142" width="512pt" xmlns="http://www.w3.org/2000/svg"><path d="m160.105469 208.582031c-.277344-20.050781-8.269531-38.785156-22.496094-52.75-14.222656-13.964843-33.085937-21.578125-53.152344-21.527343-21.050781.085937-41.207031 9.046874-55.390625 24.605468-21.417968 20.859375-29.066406 69.84375-29.066406 108.929688 0 24.042968 2.699219 46.976562 7.808594 66.316406 5.4375 20.597656 13.058594 35.363281 22.652344 43.90625 13.945312 14.363281 32.609374 22.371094 52.640624 22.574219.257813.003906.511719.003906.769532.003906 19.683594 0 38.238281-7.652344 52.324218-21.597656 14.265626-14.121094 22.121094-32.890625 22.121094-52.851563 0-14.417968-4.132812-28.410156-11.949218-40.464844-6.613282-10.195312-6.382813-23.355468.585937-33.523437 8.824219-12.875 13.371094-27.957031 13.152344-43.621094zm-38.90625 93.46875c4.65625 7.183594 7.117187 15.527344 7.117187 24.140625 0 11.890625-4.695312 23.089844-13.226562 31.535156-8.535156 8.445313-19.820313 13.015626-31.683594 12.914063-12.101562-.121094-23.367188-5.019531-31.726562-13.789063l-.527344-.554687-.578125-.496094c-8.542969-7.308593-20.574219-39.433593-20.574219-87.964843 0-44.503907 10.378906-78.339844 20.144531-87.578126l.445313-.421874.410156-.457032c8.550781-9.53125 20.789062-15.023437 33.574219-15.078125h.195312c25.089844 0 44.988281 19.601563 45.339844 44.699219.128906 9.433594-2.601563 18.507812-7.902344 26.242188-13.835937 20.195312-14.234375 46.417968-1.007812 66.808593zm0 0"/><path d="m386.558594 316.617188c-12.507813-15.566407-30.394532-25.277344-50.367188-27.351563-19.964844-2.074219-39.457031 3.753906-54.890625 16.414063-11.148437 9.144531-19.347656 21.214843-23.707031 34.902343-3.6875 11.578125-14.011719 19.746094-26.292969 20.808594-15.546875 1.34375-30.09375 7.394531-42.066406 17.496094-15.328125 12.933593-24.746094 30.992187-26.519531 50.847656-1.773438 19.851563 4.285156 39.296875 17.066406 54.75 13.417969 16.222656 33.128906 26.121094 54.15625 27.21875 1.789062.203125 3.628906.296875 5.511719.296875 29.304687 0 68.742187-23.613281 97.140625-46.90625 18.589844-15.25 34.605468-31.882812 46.320312-48.097656 12.476563-17.269532 19.058594-32.523438 19.582032-45.359375 2.257812-19.890625-3.386719-39.402344-15.933594-55.019531zm-13.925782 52.066406-.09375.757812-.015624.761719c-.234376 11.242187-17.441407 40.917969-54.960938 71.695313-34.410156 28.226562-67.144531 41.671874-80.492188 39.96875l-1.222656-.105469c-12.789062-.566407-24.800781-6.542969-32.949218-16.394531-16.050782-19.40625-13.554688-47.320313 5.679687-63.550782 7.210937-6.085937 15.960937-9.730468 25.300781-10.535156 24.390625-2.109375 44.917969-18.433594 52.296875-41.589844 2.597657-8.15625 7.492188-15.355468 14.148438-20.8125 7.972656-6.542968 17.785156-10.019531 28.035156-10.019531 1.570313 0 3.148437.082031 4.734375.246094 11.945312 1.238281 22.625 7.03125 30.078125 16.304687 7.582031 9.433594 10.941406 21.25 9.460937 33.273438zm0 0"/><path d="m226.125 221.476562c14.441406 15.660157 28.082031 25.144532 40.558594 28.207032 7.566406 2.453125 15.320312 3.667968 23.035156 3.667968 11.707031 0 23.324219-2.800781 34.054688-8.34375 17.742187-9.160156 30.816406-24.757812 36.820312-43.917968 6.003906-19.15625 4.164062-39.421875-5.171875-57.0625-6.746094-12.742188-16.945313-23.175782-29.492187-30.171875-10.613282-5.917969-16.566407-17.65625-15.164063-29.90625 1.777344-15.503907-1.261719-30.964844-8.78125-44.703125-9.628906-17.59375-25.453125-30.414063-44.5625-36.101563-19.101563-5.6875-39.363281-3.613281-57.046875 5.839844-18.566406 9.921875-32.1875 27.269531-37.441406 47.660156-9.175782 28.453125 6.980468 75.324219 25.265625 109.871094 11.246093 21.25 24.363281 40.253906 37.925781 54.960937zm-34.578125-155.828124.347656-1.175782c3.101563-12.421875 11.34375-23.003906 22.621094-29.03125 6.953125-3.714844 14.355469-5.484375 21.625-5.484375 15.949219 0 31.226563 8.523438 39.527344 23.6875 4.53125 8.277344 6.359375 17.578125 5.292969 26.894531-2.785157 24.320313 9.132812 47.683594 30.363281 59.519532 7.472656 4.167968 13.554687 10.390625 17.582031 18.003906 5.5625 10.507812 6.648438 22.605469 3.0625 34.058594-3.589844 11.457031-11.390625 20.773437-21.960938 26.234375-10.753906 5.554687-23 6.496093-34.492187 2.65625l-.722656-.242188-.742188-.167969c-10.972656-2.464843-36.636719-25.230468-59.339843-68.121093-20.816407-39.332031-27.472657-74.09375-23.164063-86.832031zm0 0"/></svg>