<?xml version="1.0" encoding="iso-8859-1"?>
<!-- Generator: Adobe Illustrator 19.0.0, SVG Export Plug-In . SVG Version: 6.00 Build 0)  -->
<svg version="1.1" id="Layer_1" xmlns="http://www.w3.org/2000/svg" xmlns:xlink="http://www.w3.org/1999/xlink" x="0px" y="0px"
	 viewBox="0 0 510.4 510.4" style="enable-background:new 0 0 510.4 510.4;" xml:space="preserve">
<g>
	<g>
		<path d="M463.757,152c-3.2-6.4-9.6-9.6-16-8c-33.6,6.4-62.4,17.6-86.4,33.6c-14.4-62.4-46.4-177.6-105.6-177.6
			c-48,0-83.2,80-102.4,168c-35.2-24-84.8-24-92.8-24c-4.8,0-11.2,3.2-14.4,9.6c-3.2,6.4-1.6,12.8,1.6,17.6
			c22.4,25.6,27.2,73.6,32,124.8c3.2,38.4,8,76.8,19.2,115.2c17.6,60.8,65.6,97.6,132.8,99.2c3.2,0,4.8,0,8,0
			c75.2,0,150.4-43.2,171.2-99.2c14.4-38.4,17.6-80,22.4-121.6c4.8-49.6,9.6-96,28.8-120C466.957,164.8,466.957,156.8,463.757,152z
			 M145.357,435.2c-6.4-9.6-11.2-20.8-14.4-32c-9.6-35.2-14.4-73.6-17.6-110.4c-4.8-41.6-8-81.6-22.4-113.6
			c20.8,3.2,43.2,11.2,54.4,27.2c-8,46.4-12.8,94.4-12.8,131.2C132.557,377.6,137.357,409.6,145.357,435.2z M212.557,470.4
			c-22.4-11.2-48-43.2-48-136c0-144,52.8-302.4,91.2-302.4c22.4,0,56,57.6,76.8,164.8C239.757,276.8,217.357,417.6,212.557,470.4z
			 M401.357,288c-3.2,40-8,80-19.2,113.6c-16,41.6-76.8,76.8-137.6,78.4c4.8-56,30.4-244.8,174.4-294.4
			C407.757,212.8,404.557,249.6,401.357,288z"/>
	</g>
</g>
<g>
</g>
<g>
</g>
<g>
</g>
<g>
</g>
<g>
</g>
<g>
</g>
<g>
</g>
<g>
</g>
<g>
</g>
<g>
</g>
<g>
</g>
<g>
</g>
<g>
</g>
<g>
</g>
<g>
</g>
</svg>
