<?xml version="1.0" encoding="iso-8859-1"?>
<!-- Generator: Adobe Illustrator 19.0.0, SVG Export Plug-In . SVG Version: 6.00 Build 0)  -->
<svg version="1.1" id="Capa_1" xmlns="http://www.w3.org/2000/svg" xmlns:xlink="http://www.w3.org/1999/xlink" x="0px" y="0px"
	 viewBox="0 0 469.333 469.333" style="enable-background:new 0 0 469.333 469.333;" xml:space="preserve">
<g>
	<g>
		<path d="M466.208,3.125c-4.167-4.167-10.917-4.167-15.083,0l-18.488,18.488c-17.384-1.017-74.02-1.397-109.033,33.616
			c-34.225,34.208-25.13,78.31-19.84,95.236l-16.168,16.169c0.161-2.193,0.395-4.344,0.393-6.634v-0.01
			c-0.027-49.516-40.31-89.311-53.323-100.882V42.667C234.667,36.771,229.896,32,224,32c-5.896,0-10.667,4.771-10.667,10.667v16.435
			c-13.033,11.572-53.344,51.349-53.344,100.909c-0.001,7.372,0.884,14.232,2.424,20.605c-9.428-12.105-18.647-20.974-23.747-25.508
			v-16.441c0-5.896-4.771-10.667-10.667-10.667c-5.896,0-10.667,4.771-10.667,10.667v16.435
			c-13.031,11.569-53.335,51.34-53.344,100.909c-0.008,46.694,35.077,73.063,51.415,82.827L3.125,451.125
			c-4.167,4.167-4.167,10.917,0,15.083c2.083,2.083,4.813,3.125,7.542,3.125s5.458-1.042,7.542-3.125l112.699-112.707
			c9.406,16.232,35.359,51.822,82.405,51.822c0.021,0,0.042,0,0.063,0c49.503-0.027,89.293-40.305,100.855-53.307L330.677,352
			c5.896-0.01,10.667-4.781,10.656-10.677c-0.01-5.885-4.781-10.656-10.667-10.656h-0.01l-16.428,0.016
			c-4.553-5.126-13.461-14.398-25.633-23.862c6.375,1.591,13.268,2.503,20.707,2.503c0,0,0.035,0,0.052,0
			c49.521-0.018,89.323-40.302,100.88-53.307L426.677,256c5.896-0.01,10.667-4.781,10.656-10.677
			c-0.01-5.885-4.781-10.656-10.667-10.656h-0.01l-16.423,0.016c-11.568-13.02-51.336-53.309-100.889-53.318
			c-2.319,0-4.49,0.229-6.704,0.393l16.211-16.212c7.202,2.257,19.279,5.204,33.504,5.204c19.167,0,42.083-5.365,61.74-25.042
			c34.996-35.023,34.647-91.634,33.63-109.016l18.484-18.484C470.375,14.042,470.375,7.292,466.208,3.125z M224.01,78.302
			c13.469,12.833,42.625,44.875,42.646,81.698c0.005,20.68-9.298,36.169-19.618,47.195l-5.573,5.573
			c-6.724,6.04-13.289,10.286-17.454,12.638c-11.667-6.667-42.698-27.927-42.688-65.396
			C181.323,123.292,210.531,91.167,224.01,78.302z M185.884,222.37c9.262,9.724,18.939,16.447,25.583,20.398l-19.872,19.874
			c0.163-2.202,0.396-4.363,0.395-6.663C191.983,244.124,189.589,232.866,185.884,222.37z M227.845,256.559
			c3.923,7.128,10.78,17.711,21.03,27.611c-11.034-4.103-22.94-6.802-35.531-6.805h-0.021c-2.309,0-4.474,0.233-6.682,0.398
			L227.845,256.559z M127.979,321.531c-11.781-6.677-42.667-27.792-42.656-65.521c0.01-36.719,29.208-68.844,42.688-81.708
			c13.469,12.833,42.625,44.875,42.646,81.698c0.01,19.973-8.663,35.156-18.555,46.138l-7.038,7.038
			C138.47,315.047,132.065,319.217,127.979,321.531z M295.031,341.365c-12.833,13.469-44.865,42.604-81.677,42.625
			c-0.01,0-0.021,0-0.021,0c-37.76,0-58.406-30.969-64.854-42.656c2.507-4.533,7.22-11.96,14.173-19.365
			c0.266-0.257,0.529-0.51,0.794-0.771c10.967-11.402,27.309-22.5,49.887-22.5h0.01
			C250.052,298.708,282.167,327.896,295.031,341.365z M309.344,202.698c36.688,0.01,68.802,29.177,81.677,42.656
			c-12.885,13.469-45,42.625-81.667,42.635h-0.01c0,0-0.021,0-0.031,0c-37.823,0-57.792-31.906-63.844-43.635
			C251.604,233.042,271.573,202.698,309.344,202.698z M399.01,130.625c-26.729,26.792-62.458,18.333-74.615,14.323
			c-3.865-12.021-12.313-48.042,14.292-74.635c25.948-25.948,69.219-27.844,87.927-27.583
			C427.063,61.333,425.021,104.583,399.01,130.625z"/>
	</g>
</g>
<g>
</g>
<g>
</g>
<g>
</g>
<g>
</g>
<g>
</g>
<g>
</g>
<g>
</g>
<g>
</g>
<g>
</g>
<g>
</g>
<g>
</g>
<g>
</g>
<g>
</g>
<g>
</g>
<g>
</g>
</svg>
